<svg width="36" height="36" viewBox="0 0 36 36" fill="none" xmlns="http://www.w3.org/2000/svg">
<path d="M34.6507 18.27C31.9839 23.3986 24.8495 30.3734 20.815 34.0888C20.6056 34.2778 20.3335 34.3824 20.0515 34.3824C19.7694 34.3824 19.4973 34.2778 19.2879 34.0888C15.2306 30.3734 8.09624 23.3986 5.4294 18.27C-0.428544 6.98724 9.78299 5.63303 20.0401 10.7482C25.7384 -0.534627 40.5087 6.98724 34.6507 18.27Z" fill="black"/>
<path d="M16.3885 7.76823L16.8348 8.65192L17.2811 7.76823C18.6543 5.04918 20.5507 3.50338 22.505 2.8454C24.4648 2.18558 26.5228 2.40448 28.2458 3.28671C29.9688 4.16889 31.3491 5.71041 31.9572 7.68967C32.5637 9.66349 32.4141 12.1138 31.0018 14.834C29.7005 17.3365 27.2885 20.322 24.6725 23.1655C22.065 25.9997 19.2847 28.6611 17.2731 30.5137C17.1558 30.6188 17.0038 30.677 16.8462 30.677C16.6884 30.677 16.5362 30.6187 16.4188 30.5133C14.3963 28.6612 11.6102 25.9997 8.99973 23.1653C6.38114 20.3221 3.96915 17.3366 2.66787 14.8343C1.25549 12.114 1.10587 9.66356 1.71232 7.68967C2.32043 5.71041 3.70076 4.16889 5.4237 3.28671C7.14672 2.40448 9.20472 2.18558 11.1645 2.8454C13.1189 3.50338 15.0152 5.04918 16.3885 7.76823Z" fill="#FF97D9" stroke="black"/>
</svg>
