<svg width="146" height="43" viewBox="0 0 146 43" fill="none" xmlns="http://www.w3.org/2000/svg">
<path fill-rule="evenodd" clip-rule="evenodd" d="M143.638 1.48509C143.351 1.43701 143.063 1.39174 142.776 1.34928C142.552 1.22118 142.289 1.12257 141.983 1.06326C141.283 0.884637 140.589 0.764266 139.896 0.699343C129.947 -1.55401 106.931 1.64546 105.981 10.19C102.813 11.2544 100.072 10.3013 96.3995 10.396C93.6044 -1.36205 45.2817 0.297525 42.9577 7.38642C42.949 7.38396 42.9403 7.38185 42.9312 7.37905C40.6982 6.68349 37.4062 6.85124 34.8504 6.74104C29.393 6.62594 23.9294 7.11549 18.5899 8.27393C8.59116 9.87314 -5.05487 11.7454 1.89909 24.3117C1.90048 24.3138 1.90153 24.3162 1.90327 24.3183L1.90432 24.3173C3.10277 25.5536 5.13668 24.558 5.21235 22.8844C2.87438 16.9312 8.15495 16.2163 12.2179 14.5055C22.3275 10.8501 32.6202 10.3434 43.0759 11.4741C43.8626 12.4062 45.0561 13.219 46.3177 13.6443C53.3086 14.8122 49.6243 20.0313 54.0433 20.7904C53.2315 38.9835 75.1785 48.9142 87.8949 36.9547C92.9722 31.9588 94.1825 24.558 95.3597 17.8871C95.9821 17.7464 96.3779 17.4039 96.6091 16.9505C98.106 15.4463 99.0464 14.0573 102.006 13.6443C104.966 13.2316 107.245 14.0602 107.553 14.3139C107.631 14.4714 107.715 14.6294 107.811 14.7873C107.947 15.0228 108.131 15.2105 108.34 15.3583C105.417 33.4748 119.392 44.9322 133.499 35.5359C139.629 29.7326 140.925 20.8476 141.181 12.9172C142.011 12.4125 142.538 11.4345 142.25 10.2048C141.854 8.50976 142.783 7.04215 144.264 6.30518C146.187 5.34818 145.847 1.85322 143.638 1.48509ZM83.0188 10.0799C81.2677 9.69224 80.5198 12.4095 82.2765 12.7982C83.5206 13.0734 84.5747 13.7048 85.2871 14.7743L85.362 14.8906C86.3178 16.4214 88.7349 15.0083 87.7722 13.4677C86.6895 11.7339 85.0067 10.5196 83.0188 10.0799ZM134.306 8.39511C133.689 7.95746 132.755 8.28235 132.397 8.90081C132.002 9.5818 132.261 10.34 132.839 10.7855L132.898 10.829C133.428 11.2052 133.944 11.8795 134.009 12.5704L134.015 12.6568C134.084 14.4649 136.877 14.4741 136.807 12.6568C136.739 10.8791 135.716 9.39377 134.306 8.39511Z" fill="#8CE6DB"/>
</svg>
