<svg width="156" height="160" viewBox="0 0 156 160" fill="none" xmlns="http://www.w3.org/2000/svg">
<path d="M133.849 94.4086C119.265 112.339 87.1891 133.549 69.2855 144.636C68.3602 145.196 67.3029 145.364 66.3184 145.109C65.3338 144.854 64.4918 144.193 63.9553 143.253C53.6164 124.843 35.8906 90.7169 31.8584 67.9589C23.0195 17.8995 60.0539 21.7705 90.5919 51.3457C122.088 11.7465 165.902 54.9538 133.849 94.4086Z" fill="black"/>
<path d="M81.1615 36.9136L81.8982 41.3536L84.6998 37.8312C92.323 28.2467 100.519 23.8773 107.911 23.0481C115.302 22.219 122.142 24.8951 127.186 29.8932C137.231 39.8452 140.319 59.3335 124.84 78.3871C117.714 87.1489 106.217 96.8124 94.166 105.721C82.1506 114.603 69.7104 122.643 60.7848 128.17C60.2906 128.466 59.7877 128.524 59.363 128.414C58.9377 128.303 58.5255 128.008 58.2377 127.507C53.0848 118.331 46.0995 105.253 39.9047 91.6481C33.692 78.004 28.3407 63.9713 26.3704 52.8505C22.1024 28.676 34.2721 13.1446 47.8872 9.32824C54.725 7.41161 62.0034 8.39689 68.0597 12.7133C74.1171 17.0304 79.1569 24.8324 81.1615 36.9136Z" fill="#D9B4F9" stroke="black" stroke-width="4"/>
</svg>
