<svg width="24" height="24" viewBox="0 0 24 24" fill="none" xmlns="http://www.w3.org/2000/svg">
<rect x="2.18182" y="2.18213" width="21.8182" height="21.8182" fill="black"/>
<rect x="0.5" y="0.5" width="20.8182" height="20.8182" fill="#FF97D9" stroke="black"/>
<path fill-rule="evenodd" clip-rule="evenodd" d="M10.9091 5.09082C9.17313 5.09082 7.50827 5.78043 6.28076 7.00794C5.05324 8.23545 4.36364 9.90031 4.36364 11.6363C4.36364 13.3722 5.05324 15.0371 6.28076 16.2646C7.50827 17.4921 9.17313 18.1817 10.9091 18.1817C12.6451 18.1817 14.3099 17.4921 15.5374 16.2646C16.7649 15.0371 17.4545 13.3722 17.4545 11.6363C17.4545 9.90031 16.7649 8.23545 15.5374 7.00794C14.3099 5.78043 12.6451 5.09082 10.9091 5.09082ZM6.98182 11.6363C6.98182 12.6779 7.39558 13.6768 8.13209 14.4133C8.8686 15.1498 9.86751 15.5635 10.9091 15.5635C11.9507 15.5635 12.9496 15.1498 13.6861 14.4133C14.4226 13.6768 14.8364 12.6779 14.8364 11.6363C14.8364 10.5947 14.4226 9.59578 13.6861 8.85927C12.9496 8.12277 11.9507 7.709 10.9091 7.709C9.86751 7.709 8.8686 8.12277 8.13209 8.85927C7.39558 9.59578 6.98182 10.5947 6.98182 11.6363Z" fill="black"/>
<path d="M18.1818 2.90918C17.796 2.90918 17.4261 3.06243 17.1533 3.33521C16.8805 3.60799 16.7273 3.97796 16.7273 4.36373C16.7273 4.74949 16.8805 5.11946 17.1533 5.39224C17.4261 5.66502 17.796 5.81827 18.1818 5.81827C18.5676 5.81827 18.9376 5.66502 19.2103 5.39224C19.4831 5.11946 19.6364 4.74949 19.6364 4.36373C19.6364 3.97796 19.4831 3.60799 19.2103 3.33521C18.9376 3.06243 18.5676 2.90918 18.1818 2.90918Z" fill="black"/>
</svg>
