<svg width="60" height="42" viewBox="0 0 60 42" fill="none" xmlns="http://www.w3.org/2000/svg">
<path d="M4.51812 15.1405C4.51812 17.1648 6.22518 18.5519 9.21618 18.5519C11.4923 18.5519 12.9853 17.4782 12.9853 16.0242C12.9853 11.4106 0.748967 15.3306 0.748967 6.16C0.748967 3.06716 3.65243 0 9.03623 0C15.2322 0 17.3235 3.92 17.3235 7.04881H12.8054C12.8054 5.37394 11.8473 3.79156 9.03623 3.79156C6.9401 3.79156 5.29626 4.70605 5.29626 6.16C5.29626 11.4055 17.5326 7.17211 17.5326 16.0242C17.5326 19.4356 14.7799 22.3435 9.21618 22.3435C2.48521 22.3486 0 18.5879 0 15.1405H4.51812Z" fill="black"/>
<path d="M24.4192 0.780945L28.4753 2.40957L24.0447 14.7296C22.7073 18.4543 24.429 20.16 26.2187 20.8742C28.0084 21.5883 30.372 21.5266 31.7095 17.8019L36.1401 5.48186L40.1962 7.11048L35.7656 19.4305C33.6646 25.2822 29.2632 26.1197 24.9299 24.3831C20.5966 22.6466 17.8877 18.9527 19.9886 13.1061L24.4192 0.780945Z" fill="black"/>
<path d="M41.5968 0.857971H46.6839L55.6618 15.6954V0.857971H60V21.8708H54.9128L45.935 7.03338V21.8708H41.5968V0.857971Z" fill="black"/>
<path d="M0.00952148 26.3714H3.18047V32.3464H4.23097L8.84149 26.3714H12.4258L6.59459 33.8004L12.8003 41.9949H8.99712L3.88567 35.1156H3.18533V41.9949H0.00952148V26.3714Z" fill="black"/>
<path d="M14.8674 26.3714H20.3291C24.6332 26.3714 26.8849 28.3545 26.8849 31.7504C26.8849 33.9648 25.8588 35.5574 23.8502 36.3435L26.8849 42H23.3006L20.5674 36.924H18.0335V42H14.8674V26.3765V26.3714ZM20.3096 34.1497C22.255 34.1497 23.5875 33.5024 23.5875 31.7504C23.5875 29.8598 22.255 29.1405 20.3096 29.1405H18.0384V34.1497H20.3096Z" fill="black"/>
<path d="M33.7473 26.3714H37.2198L42.7251 41.9949H39.3402L38.3335 38.8095H32.5898L31.5831 41.9949H28.3051L33.7473 26.3714ZM37.4629 36.0404L35.4543 29.6492L33.4652 36.0404H37.4629Z" fill="black"/>
<path d="M44.8067 26.3713H48.5224L52.3888 33.713L56.2795 26.3713H59.9952V41.9948H56.8291V31.1699L53.4636 37.6073H51.2994L47.9777 31.3291V41.9897H44.8116V26.3662L44.8067 26.3713Z" fill="black"/>
</svg>
