<svg width="131" height="87" viewBox="0 0 131 87" fill="none" xmlns="http://www.w3.org/2000/svg">
<path d="M9.86456 30.9873C9.86456 35.1302 13.5916 37.9692 20.122 37.9692C25.0914 37.9692 28.3513 35.7716 28.3513 32.7959C28.3513 23.3535 1.63524 31.3764 1.63524 12.6073C1.63524 6.27737 7.97447 0 19.7291 0C33.257 0 37.823 8.02284 37.823 14.4264H27.9584C27.9584 10.9986 25.8666 7.75997 19.7291 7.75997C15.1526 7.75997 11.5635 9.63162 11.5635 12.6073C11.5635 23.343 38.2796 14.6788 38.2796 32.7959C38.2796 39.7777 32.2695 45.7292 20.122 45.7292C5.42604 45.7397 0 38.0428 0 30.9873H9.86456Z" fill="black"/>
<path d="M53.3153 1.59814L62.1711 4.93136L52.4976 30.146C49.5776 37.7693 53.3365 41.2602 57.2441 42.7218C61.1517 44.1834 66.3123 44.0572 69.2323 36.4339L78.9058 11.2192L87.7616 14.5525L78.0881 39.7671C73.501 51.7435 63.8913 53.4575 54.4302 49.9034C44.9691 46.3494 39.0547 38.7892 43.6418 26.8233L53.3153 1.59814Z" fill="#FFD000" stroke="black" stroke-width="2" stroke-miterlimit="10"/>
<path d="M90.8197 1.75586H101.927L121.528 32.1228V1.75586H131V44.7617H119.893L100.291 14.3947V44.7617H90.8197V1.75586Z" fill="black"/>
<path d="M0.0209351 53.9727H6.94417V66.2014H9.23776L19.3041 53.9727H27.1299L14.3983 69.1772L27.9475 85.9484H19.6439L8.48385 71.869H6.95479V85.9484H0.0209351V53.9727Z" fill="black"/>
<path d="M32.4606 53.9727H44.3852C53.7825 53.9727 58.6989 58.0314 58.6989 64.9817C58.6989 69.5136 56.4584 72.7732 52.0729 74.382L58.6989 85.9589H50.8731L44.9055 75.5702H39.3733V85.9589H32.4606V53.9832V53.9727ZM44.3427 69.8922C48.5901 69.8922 51.4995 68.5673 51.4995 64.9817C51.4995 61.1122 48.5901 59.6402 44.3427 59.6402H39.3839V69.8922H44.3427Z" fill="black"/>
<path d="M73.6816 53.9727H81.2631L93.2832 85.9484H85.8928L83.6948 79.4291H71.1544L68.9563 85.9484H61.7995L73.6816 53.9727ZM81.7941 73.7616L77.4086 60.6811L73.0657 73.7616H81.7941Z" fill="#FFD000" stroke="black" stroke-width="2" stroke-miterlimit="10"/>
<path d="M97.8279 53.9729H105.94L114.382 68.9987L122.877 53.9729H130.989V85.9486H124.077V63.7938L116.729 76.9689H112.004L104.751 64.1198V85.9381H97.8385V53.9624L97.8279 53.9729Z" fill="black"/>
</svg>
