<svg width="145" height="121" viewBox="0 0 145 121" fill="none" xmlns="http://www.w3.org/2000/svg">
<path d="M53.3395 41.9551L56.4965 53.1504L77.7251 37.7206L91.8399 51.6853L93.7799 75.1759L43.548 104.386L16.5514 57.8635L18.4355 45.4217L28.4623 35.668L42.9966 30.5191L53.3395 41.9551Z" fill="#FF97D9"/>
<path d="M50.9907 28.1284L35.3752 24.1819L33.3992 32.0004L25.5915 30.0272L23.6155 37.8457L15.8077 35.8725L9.87983 59.3281L17.6876 61.3014L15.7116 69.1199L23.5194 71.0931L21.5434 78.9117L29.3512 80.8849L27.3752 88.7035L35.183 90.6767L33.207 98.4953L41.0148 100.468L39.0388 108.287L46.8466 110.26L48.8226 102.442L56.6303 104.415L58.6063 96.5964L66.4141 98.5697L68.39 90.7511L76.1978 92.7244L78.1738 84.9059L85.9816 86.8791L87.9575 79.0606L95.7653 81.0338L101.693 57.5782L93.8854 55.6049L95.8614 47.7864L88.0536 45.8132L90.0296 37.9946L74.414 34.0481L72.4381 41.8667L64.6303 39.8934L62.6543 47.712L54.8466 45.7387L56.8225 37.9202L49.0148 35.9469L50.9907 28.1284ZM49.0148 35.9469L47.0388 43.7655L54.8466 45.7387L52.8706 53.5573L60.6784 55.5305L62.6543 47.712L70.4621 49.6852L72.4381 41.8667L88.0536 45.8132L86.0777 53.6317L93.8854 55.6049L87.9575 79.0606L80.1498 77.0873L78.1738 84.9059L70.366 82.9326L68.39 90.7511L60.5823 88.7779L58.6063 96.5964L50.7985 94.6232L48.8226 102.442L41.0148 100.468L42.9908 92.65L35.183 90.6767L37.159 82.8582L29.3512 80.8849L31.3272 73.0664L23.5194 71.0931L25.4954 63.2746L17.6876 61.3014L23.6155 37.8457L31.4233 39.819L33.3992 32.0004L49.0148 35.9469Z" fill="#FF97D9"/>
<path d="M36.9527 33.2296C36.428 32.8834 36.0434 33.0232 35.4474 33.1368C34.9545 33.2307 34.4658 33.3352 33.979 33.4569C33.8292 33.4943 33.4578 33.6589 33.5197 33.5174C33.5503 33.4476 34.1364 33.1778 34.1411 33.1749C34.7818 32.7896 35.3897 32.3528 36.0306 31.9673C36.206 31.8618 37.8327 30.8646 37.1372 31.6213C36.268 32.5669 35.2765 33.4334 34.3387 34.3096C33.9296 34.6918 33.5405 35.0901 33.1398 35.4799C32.9945 35.6212 33.3505 35.1319 33.4792 34.9754C33.9114 34.4496 34.435 33.9431 34.7908 33.3593C35.0265 32.9725 34.2671 33.2004 34.1338 33.2437C34.0064 33.2851 33.5121 33.5205 33.3952 33.491C33.2374 33.4511 33.549 33.0948 33.5885 33.0656C33.6217 33.041 34.2137 32.6686 34.1709 32.6577C33.8848 32.5855 33.7535 33.2779 33.7335 33.4302C33.4966 35.2364 33.9701 37.2478 32.9613 38.9212C31.8445 40.7738 29.3331 41.6393 27.2793 41.3601C26.2851 41.2249 26.1791 40.7789 25.9544 39.8547C25.8869 39.5768 25.7929 39.3012 25.7205 39.0236C25.5409 38.3355 24.8401 39.2238 24.5982 39.4514C23.7931 40.209 22.9886 40.9753 22.1414 41.6862C22.0772 41.7401 21.6045 42.1904 21.6445 42.0551C21.8238 41.449 22.5051 40.8629 22.8555 40.3379C23.1496 39.8973 23.4978 39.4924 23.7854 39.0542C23.9513 38.8014 24.1993 38.5795 24.3141 38.2999C24.4969 37.8543 24.0853 38.611 23.9333 38.7485" stroke="#FF97D9" stroke-width="3.86004" stroke-linecap="round"/>
<path d="M48.3016 37.9141C48.2218 37.5871 48.0204 37.3951 47.8053 37.1429C47.3562 36.6162 47.1654 36.0793 47.0267 35.4123C46.9629 35.1054 46.8514 34.6686 46.931 34.3538C46.9982 34.0878 47.1722 34.8466 47.2886 35.095C47.4608 35.4627 47.7304 35.8005 47.9907 36.11C48.2272 36.3913 48.3767 36.7161 48.6053 36.9919C48.7606 37.1792 49.0418 37.4295 49.0924 37.6599" stroke="#FF97D9" stroke-width="3.86004" stroke-linecap="round"/>
<path d="M18.7921 61.6066C18.8693 61.3012 18.5967 61.1035 18.4547 60.8655C18.355 60.6984 18.4205 60.4028 18.3043 60.3027" stroke="#FF97D9" stroke-width="3.86004" stroke-linecap="round"/>
<path d="M53.7133 45.9833L53.7233 45.9434" stroke="#FF97D9" stroke-width="3.86004" stroke-linecap="round"/>
<path d="M53.6839 45.7639C53.7967 45.8061 53.9082 46.1036 53.9048 46.2224C53.8989 46.4255 53.5058 46.3242 53.4833 46.2219" stroke="#FF97D9" stroke-width="3.86004" stroke-linecap="round"/>
<path d="M64.523 48.3336C64.2905 48.2749 63.9641 48.6445 63.7096 48.7004C63.5124 48.7437 63.3364 48.8388 63.1559 48.8784" stroke="#FF97D9" stroke-width="3.86004" stroke-linecap="round"/>
<path d="M63.2667 48.4401L63.2369 48.3902" stroke="#FF97D9" stroke-width="3.86004" stroke-linecap="round"/>
<path d="M85.6748 44.9887C85.6006 45.4578 86.2677 45.8801 86.4979 46.2236C86.5437 46.2919 86.5133 46.3691 86.5561 46.4408C86.6102 46.5315 86.7208 46.5602 86.776 46.633C86.8856 46.7776 87.0054 47.0141 86.9863 46.6768C86.9782 46.5331 86.8862 46.153 87.0875 46.1088" stroke="#FF97D9" stroke-width="3.86004" stroke-linecap="round"/>
<path d="M91.9001 54.7439C91.9791 54.4312 91.8052 55.3944 91.8677 55.7107C91.8981 55.8648 91.9328 56.0333 91.9495 56.1883C91.9781 56.4538 92.1117 56.6916 92.1663 56.952C92.265 57.4227 92.2424 57.907 92.2778 58.3839C92.3046 58.7445 92.3655 59.0998 92.4484 59.4515C92.5503 59.8839 92.62 60.3665 92.7917 60.7771C92.8882 61.008 93.0251 60.7059 93.0735 60.594C93.2915 60.0897 93.2851 59.641 93.1454 59.126C92.9794 58.5139 92.8306 57.9074 92.7204 57.2852C92.6969 57.1527 92.7277 57.0456 92.7269 56.9147C92.7248 56.5712 92.5818 56.243 92.5705 55.9119C92.5654 55.764 92.5608 55.616 92.6059 55.4734C92.6373 55.3742 92.7729 55.8084 92.7839 55.8504C92.8127 55.9611 92.8397 56.16 92.923 56.2318" stroke="#FF97D9" stroke-width="3.86004" stroke-linecap="round"/>
<path d="M78.0387 83.926C78.1516 83.9701 77.6447 84.2707 77.599 84.3236" stroke="#FF97D9" stroke-width="3.86004" stroke-linecap="round"/>
<path d="M87.7532 78.0297C87.7007 78.1748 87.542 78.2151 87.4633 78.3379" stroke="#FF97D9" stroke-width="3.86004" stroke-linecap="round"/>
<path d="M68.4148 89.4638C68.3045 89.5212 68.2228 89.4338 68.1051 89.5151C68.0001 89.5876 67.8568 89.6338 67.7651 89.7236C67.7114 89.7762 67.4896 89.8659 67.6439 89.9049C67.7419 89.9297 67.8681 89.9294 67.9353 89.8514" stroke="#FF97D9" stroke-width="3.86004" stroke-linecap="round"/>
<path d="M59.2692 95.1224C58.9034 95.3593 58.5729 95.5931 58.1484 95.7082C58.0307 95.7401 57.8567 95.8344 57.7917 95.936" stroke="#FF97D9" stroke-width="3.86004" stroke-linecap="round"/>
<path d="M48.8177 100.748C48.7204 100.82 48.6363 100.962 48.6069 101.078C48.5366 101.357 48.3341 101.552 48.1395 101.754C47.9437 101.957 47.693 102.126 47.4283 102.219" stroke="#FF97D9" stroke-width="3.86004" stroke-linecap="round"/>
<path d="M35.6773 89.8383C35.7482 89.866 35.6712 90.03 35.6567 90.0875" stroke="#FF97D9" stroke-width="3.86004" stroke-linecap="round"/>
<path d="M41.8819 99.8428L41.8719 99.8826" stroke="#FF97D9" stroke-width="3.86004" stroke-linecap="round"/>
<path d="M23.716 70.0699C23.8997 70.1163 23.948 70.2911 24.1229 70.3423C24.2362 70.3755 24.5157 70.5411 24.5418 70.6601" stroke="#FF97D9" stroke-width="3.86004" stroke-linecap="round"/>
<path d="M29.4433 79.6146C29.6468 79.666 29.7398 79.9439 29.9208 79.9896C30.1402 80.045 30.1484 80.3602 30.2784 80.5039" stroke="#FF97D9" stroke-width="3.86004" stroke-linecap="round"/>
<path d="M124.451 9.45019L125.384 13.9332L134.143 8.45595L139.303 14.327L139.421 23.6051L118.894 33.6986L109.568 14.6888L110.649 9.85446L114.854 6.29902L120.703 4.67559L124.451 9.45019Z" fill="#FF97D9"/>
<path d="M123.908 3.95601L117.884 1.97801L116.893 4.99422L113.881 4.00522L112.891 7.02144L109.879 6.03243L106.908 15.0811L109.92 16.0701L108.929 19.0863L111.941 20.0753L110.951 23.0915L113.963 24.0805L112.973 27.0967L115.985 28.0858L114.994 31.102L118.006 32.091L117.016 35.1072L120.028 36.0962L121.019 33.08L124.031 34.069L125.021 31.0528L128.033 32.0418L129.023 29.0255L132.035 30.0146L133.026 26.9983L136.038 27.9873L137.028 24.9711L140.04 25.9601L143.011 16.9115L139.999 15.9225L140.99 12.9063L137.978 11.9172L138.968 8.90103L132.944 6.92302L131.954 9.93924L128.941 8.95024L127.951 11.9665L124.939 10.9775L125.929 7.96123L122.917 6.97223L123.908 3.95601ZM122.917 6.97223L121.927 9.98845L124.939 10.9775L123.949 13.9937L126.961 14.9827L127.951 11.9665L130.963 12.9555L131.954 9.93924L137.978 11.9172L136.987 14.9335L139.999 15.9225L137.028 24.9711L134.016 23.9821L133.026 26.9983L130.014 26.0093L129.023 29.0255L126.011 28.0365L125.021 31.0528L122.009 30.0638L121.019 33.08L118.006 32.091L118.997 29.0748L115.985 28.0858L116.975 25.0695L113.963 24.0805L114.953 21.0643L111.941 20.0753L112.932 17.0591L109.92 16.0701L112.891 7.02144L115.903 8.01044L116.893 4.99422L122.917 6.97223Z" fill="#FF97D9"/>
<path d="M118.255 5.57425C118.058 5.42391 117.904 5.46825 117.666 5.49652C117.47 5.51989 117.275 5.54753 117.081 5.58196C117.021 5.59256 116.871 5.64699 116.899 5.59313C116.913 5.56656 117.15 5.47667 117.152 5.47569C117.414 5.34192 117.665 5.18706 117.927 5.05324C117.999 5.01661 118.665 4.66964 118.371 4.94773C118.004 5.29523 117.591 5.60832 117.199 5.92671C117.028 6.06559 116.864 6.21132 116.696 6.35341C116.635 6.40493 116.788 6.22254 116.843 6.16458C117.027 5.96996 117.247 5.78541 117.402 5.5659C117.506 5.42045 117.201 5.48913 117.148 5.5025C117.096 5.51527 116.896 5.59415 116.851 5.57934C116.79 5.55936 116.922 5.428 116.938 5.41758C116.952 5.40883 117.195 5.27883 117.178 5.2734C117.068 5.23716 116.997 5.50547 116.985 5.56473C116.843 6.26755 116.973 7.07042 116.531 7.69993C116.042 8.39685 115.032 8.66786 114.233 8.50189C113.846 8.42156 113.817 8.24351 113.754 7.87439C113.735 7.7634 113.706 7.65262 113.685 7.54161C113.633 7.26643 113.334 7.59607 113.233 7.67883C112.896 7.95425 112.559 8.23312 112.207 8.48908C112.18 8.50848 111.982 8.67234 112.001 8.62032C112.088 8.38723 112.372 8.17575 112.524 7.97918C112.652 7.81422 112.799 7.66475 112.924 7.50057C112.996 7.40584 113.1 7.32549 113.153 7.21882C113.237 7.04885 113.054 7.33473 112.991 7.38457" stroke="#FF97D9" stroke-width="3.86004" stroke-linecap="round"/>
<path d="M122.583 7.72506C122.561 7.59442 122.487 7.51353 122.41 7.40858C122.248 7.18941 122.187 6.97336 122.151 6.70762C122.135 6.58532 122.103 6.41074 122.143 6.28931C122.176 6.1867 122.224 6.48946 122.263 6.5902C122.32 6.73931 122.417 6.87935 122.511 7.00804C122.596 7.12498 122.646 7.25665 122.728 7.37122C122.784 7.44902 122.887 7.55503 122.901 7.64691" stroke="#FF97D9" stroke-width="3.86004" stroke-linecap="round"/>
<path d="M110.345 16.2202C110.384 16.1024 110.282 16.0173 110.233 15.9199C110.198 15.8515 110.232 15.7373 110.189 15.6948" stroke="#FF97D9" stroke-width="3.86004" stroke-linecap="round"/>
<path d="M124.487 11.0424L124.492 11.027" stroke="#FF97D9" stroke-width="3.86004" stroke-linecap="round"/>
<path d="M124.482 10.9553C124.525 10.975 124.56 11.0949 124.556 11.1415C124.548 11.2211 124.396 11.1705 124.39 11.1297" stroke="#FF97D9" stroke-width="3.86004" stroke-linecap="round"/>
<path d="M128.668 12.2617C128.578 12.2323 128.44 12.3685 128.338 12.3835C128.26 12.3951 128.188 12.4276 128.116 12.4382" stroke="#FF97D9" stroke-width="3.86004" stroke-linecap="round"/>
<path d="M128.172 12.2691L128.161 12.2487" stroke="#FF97D9" stroke-width="3.86004" stroke-linecap="round"/>
<path d="M137.066 11.5281C137.024 11.7103 137.274 11.8945 137.355 12.0357C137.372 12.0637 137.357 12.0932 137.372 12.1226C137.391 12.1597 137.434 12.174 137.453 12.2041C137.492 12.2639 137.533 12.36 137.535 12.227C137.536 12.1704 137.51 12.0186 137.59 12.0067" stroke="#FF97D9" stroke-width="3.86004" stroke-linecap="round"/>
<path d="M139.243 15.5298C139.283 15.4092 139.188 15.7827 139.204 15.9086C139.212 15.97 139.221 16.0371 139.223 16.0984C139.227 16.2035 139.273 16.3005 139.287 16.4043C139.313 16.5918 139.291 16.7814 139.292 16.9696C139.292 17.112 139.307 17.2532 139.33 17.3936C139.358 17.5662 139.372 17.7576 139.428 17.9236C139.46 18.0169 139.522 17.902 139.544 17.8594C139.643 17.6673 139.653 17.4909 139.612 17.2849C139.564 17.0399 139.522 16.7976 139.496 16.5503C139.49 16.4976 139.505 16.4564 139.508 16.405C139.517 16.27 139.47 16.1372 139.475 16.0069C139.477 15.9487 139.479 15.8904 139.5 15.8356C139.516 15.7975 139.557 15.9718 139.56 15.9886C139.568 16.0328 139.573 16.1117 139.604 16.1422" stroke="#FF97D9" stroke-width="3.86004" stroke-linecap="round"/>
<path d="M133 26.6098C133.043 26.6302 132.835 26.7343 132.816 26.7539" stroke="#FF97D9" stroke-width="3.86004" stroke-linecap="round"/>
<path d="M136.976 24.5606C136.952 24.6161 136.888 24.6276 136.854 24.6737" stroke="#FF97D9" stroke-width="3.86004" stroke-linecap="round"/>
<path d="M129.068 28.5206C129.023 28.5401 128.994 28.5035 128.945 28.5322C128.902 28.5578 128.845 28.572 128.806 28.6048C128.784 28.6239 128.694 28.6531 128.754 28.6726C128.791 28.6851 128.841 28.6884 128.869 28.6596" stroke="#FF97D9" stroke-width="3.86004" stroke-linecap="round"/>
<path d="M125.322 30.4919C125.172 30.575 125.035 30.6577 124.865 30.6913C124.818 30.7006 124.747 30.7328 124.719 30.7709" stroke="#FF97D9" stroke-width="3.86004" stroke-linecap="round"/>
<path d="M121.063 32.4145C121.023 32.4401 120.986 32.4937 120.971 32.5385C120.936 32.6459 120.851 32.717 120.769 32.791C120.687 32.8655 120.584 32.9248 120.477 32.9544" stroke="#FF97D9" stroke-width="3.86004" stroke-linecap="round"/>
<path d="M116.202 27.77C116.229 27.7828 116.194 27.8451 116.187 27.8672" stroke="#FF97D9" stroke-width="3.86004" stroke-linecap="round"/>
<path d="M118.364 31.8689L118.359 31.8843" stroke="#FF97D9" stroke-width="3.86004" stroke-linecap="round"/>
<path d="M112.047 19.6788C112.117 19.7021 112.132 19.772 112.199 19.7969C112.243 19.813 112.348 19.8858 112.355 19.9332" stroke="#FF97D9" stroke-width="3.86004" stroke-linecap="round"/>
<path d="M114.034 23.5841C114.113 23.6099 114.141 23.7216 114.211 23.7445C114.296 23.7723 114.29 23.8963 114.338 23.9563" stroke="#FF97D9" stroke-width="3.86004" stroke-linecap="round"/>
</svg>
