<svg width="169" height="162" viewBox="0 0 169 162" fill="none" xmlns="http://www.w3.org/2000/svg">
<circle cx="57.6429" cy="57.6429" r="54.6429" transform="matrix(-0.895756 0.444547 0.444547 0.895756 103.268 6.96994)" fill="black" stroke="black" stroke-width="6"/>
<circle cx="57.6429" cy="57.6429" r="54.6429" transform="matrix(-0.895756 0.444547 0.444547 0.895756 108.225 4.50998)" fill="black" stroke="black" stroke-width="6"/>
<circle cx="57.6429" cy="57.6429" r="54.6429" transform="matrix(-0.895756 0.444547 0.444547 0.895756 112.355 2.45995)" fill="black" stroke="black" stroke-width="6"/>
<circle cx="57.6429" cy="57.6429" r="54.6429" transform="matrix(-0.895756 0.444547 0.444547 0.895756 117.312 0)" fill="#8CE6DB" stroke="black" stroke-width="6"/>
<circle cx="3.68915" cy="3.68915" r="3.68915" transform="matrix(-0.895756 0.444547 0.444547 0.895756 88.2928 49.4088)" fill="black"/>
<circle cx="3.68915" cy="3.68915" r="3.68915" transform="matrix(-0.895756 0.444547 0.444547 0.895756 73.3976 65.0379)" fill="black"/>
<path d="M108.507 49.0263C115.705 55.5634 128.775 73.3114 108.716 93.6651C90.3068 112.346 69.0119 96.7812 63.4864 91.0196" stroke="black" stroke-width="6" stroke-linecap="round"/>
</svg>
