<svg width="24" height="24" viewBox="0 0 24 24" fill="none" xmlns="http://www.w3.org/2000/svg">
<rect x="2.18182" y="2.18213" width="21.8182" height="21.8182" fill="black"/>
<rect x="0.5" y="0.5" width="20.8182" height="20.8182" fill="#8CE6DB" stroke="black"/>
<path d="M17.8291 4.45469L3.65619 10.0827C2.68895 10.4828 2.69454 11.0384 3.47873 11.2862L7.11749 12.4551L15.5365 6.98513C15.9346 6.73571 16.2983 6.86988 15.9993 7.14318L9.17828 13.4825H9.17668L9.17828 13.4833L8.92727 17.3456C9.29498 17.3456 9.45726 17.1719 9.6635 16.967L11.4309 15.1971L15.1072 17.9935C15.7851 18.3779 16.2719 18.1803 16.4406 17.3473L18.8539 5.63512C19.1009 4.61521 18.4758 4.1534 17.8291 4.45469Z" fill="black"/>
</svg>
