<svg width="231" height="233" viewBox="0 0 231 233" fill="none" xmlns="http://www.w3.org/2000/svg">
<path d="M79.3994 6.53881L121.006 45.6827L122.471 47.0613L124.303 46.2289L176.31 22.594L171.648 79.5292L171.483 81.5344L173.276 82.4474L224.181 108.372L176.76 140.225L175.09 141.347L175.494 143.318L186.963 199.281L132.493 182.066L130.575 181.459L129.286 183.004L92.6837 226.863L72.1812 173.543L71.4592 171.666L69.4479 171.621L12.3361 170.35L41.2403 121.076L42.2582 119.341L41.0391 117.741L6.42407 72.2965L62.9694 64.1729L64.9608 63.8868L65.452 61.9359L79.3994 6.53881Z" fill="#FFD000" stroke="black" stroke-width="6"/>
</svg>
